<svg id="Layer_1" enable-background="new 0 0 64 64" height="512" viewBox="0 0 64 64" width="512" xmlns="http://www.w3.org/2000/svg" xmlns:xlink="http://www.w3.org/1999/xlink"><linearGradient id="lg1"><stop offset="0" stop-color="#00a5e9"/><stop offset="1" stop-color="#15ffce"/></linearGradient><linearGradient id="SVGID_1_" gradientUnits="userSpaceOnUse" x1="13.679" x2="13.679" xlink:href="#lg1" y1="58" y2="6"/><linearGradient id="SVGID_2_" gradientUnits="userSpaceOnUse" x1="41.46" x2="41.46" xlink:href="#lg1" y1="58" y2="6"/><linearGradient id="SVGID_3_" gradientUnits="userSpaceOnUse" x1="16.145" x2="16.145" xlink:href="#lg1" y1="58" y2="6"/><linearGradient id="SVGID_4_" gradientUnits="userSpaceOnUse" x1="17.355" x2="17.355" xlink:href="#lg1" y1="58" y2="6"/><linearGradient id="SVGID_5_" gradientUnits="userSpaceOnUse" x1="30.643" x2="30.643" xlink:href="#lg1" y1="58" y2="6"/><linearGradient id="SVGID_6_" gradientUnits="userSpaceOnUse" x1="24.982" x2="24.982" xlink:href="#lg1" y1="58" y2="6"/><linearGradient id="SVGID_7_" gradientUnits="userSpaceOnUse" x1="22.65" x2="22.65" xlink:href="#lg1" y1="58" y2="6"/><linearGradient id="SVGID_8_" gradientUnits="userSpaceOnUse" x1="46.755" x2="46.755" xlink:href="#lg1" y1="58" y2="6"/><linearGradient id="SVGID_9_" gradientUnits="userSpaceOnUse" x1="43.6" x2="43.6" xlink:href="#lg1" y1="58" y2="6"/><linearGradient id="SVGID_10_" gradientUnits="userSpaceOnUse" x1="42.392" x2="42.392" xlink:href="#lg1" y1="58" y2="6"/><linearGradient id="SVGID_11_" gradientUnits="userSpaceOnUse" x1="53.86" x2="53.86" xlink:href="#lg1" y1="58" y2="6"/><linearGradient id="SVGID_12_" gradientUnits="userSpaceOnUse" x1="12.879" x2="12.879" xlink:href="#lg1" y1="58" y2="6"/><linearGradient id="SVGID_13_" gradientUnits="userSpaceOnUse" x1="37.54" x2="37.54" xlink:href="#lg1" y1="58" y2="6"/><linearGradient id="SVGID_14_" gradientUnits="userSpaceOnUse" x1="18.809" x2="18.809" xlink:href="#lg1" y1="58" y2="6"/><linearGradient id="SVGID_15_" gradientUnits="userSpaceOnUse" x1="43.469" x2="43.469" xlink:href="#lg1" y1="58" y2="6"/><linearGradient id="SVGID_16_" gradientUnits="userSpaceOnUse" x1="29.913" x2="29.913" xlink:href="#lg1" y1="58" y2="6"/><linearGradient id="SVGID_17_" gradientUnits="userSpaceOnUse" x1="35.734" x2="35.734" xlink:href="#lg1" y1="58" y2="6"/><linearGradient id="SVGID_18_" gradientUnits="userSpaceOnUse" x1="50.331" x2="50.331" xlink:href="#lg1" y1="58" y2="6"/><linearGradient id="SVGID_19_" gradientUnits="userSpaceOnUse" x1="41.182" x2="41.182" xlink:href="#lg1" y1="58" y2="6"/><linearGradient id="SVGID_20_" gradientUnits="userSpaceOnUse" x1="31.365" x2="31.365" xlink:href="#lg1" y1="58" y2="6"/><linearGradient id="SVGID_21_" gradientUnits="userSpaceOnUse" x1="33.553" x2="33.553" xlink:href="#lg1" y1="58" y2="6"/><path d="m11.938 35.882c.081.02.163.029.243.029.448 0 .856-.304.97-.758l2.996-12.017c.133-.536-.193-1.079-.729-1.213-.534-.131-1.079.193-1.213.729l-2.995 12.017c-.133.536.193 1.079.728 1.213z" fill="url(#SVGID_1_)"/><path d="m38.51 42.507c.081.02.163.029.243.029.448 0 .855-.304.97-.758l5.416-21.72c.133-.536-.193-1.079-.729-1.213-.535-.129-1.078.193-1.213.729l-5.416 21.72c-.133.536.194 1.079.729 1.213z" fill="url(#SVGID_2_)"/><path d="m16.14 20.01c.271 0 .521-.1.71-.29.19-.189.3-.439.3-.71 0-.26-.109-.52-.3-.7-.37-.38-1.04-.38-1.41 0-.189.181-.3.44-.3.7 0 .271.11.521.3.71.18.19.44.29.7.29z" fill="url(#SVGID_3_)"/><path d="m16.87 16.103c.081.02.163.029.243.029.448 0 .855-.304.97-.758l.484-1.94c.133-.536-.192-1.079-.729-1.213-.535-.131-1.078.193-1.213.729l-.484 1.94c-.132.536.193 1.079.729 1.213z" fill="url(#SVGID_4_)"/><path d="m28.945 23.204c.111 0 .226-.019.337-.059l3.395-1.214c.52-.186.791-.758.604-1.278-.186-.52-.756-.793-1.278-.604l-3.395 1.214c-.52.186-.791.758-.604 1.278.145.408.531.663.941.663z" fill="url(#SVGID_5_)"/><path d="m12.667 37.094c-.133.536.193 1.079.729 1.213l22.69 5.657c.081.02.163.029.243.029.448 0 .856-.304.97-.758.133-.536-.193-1.079-.729-1.213l-22.69-5.657c-.535-.131-1.08.194-1.213.729z" fill="url(#SVGID_6_)"/><path d="m7.758 41.023 29.301 7.305c.081.02.163.029.243.029.448 0 .856-.304.97-.758.133-.536-.193-1.079-.729-1.213l-29.301-7.304c-.535-.128-1.08.193-1.213.729s.194 1.079.729 1.212z" fill="url(#SVGID_7_)"/><path d="m44.326 35.712c.081.02.163.029.243.029.448 0 .855-.304.97-.758l4.373-17.538c.133-.536-.193-1.079-.729-1.213-.535-.129-1.078.193-1.213.729l-4.373 17.538c-.132.536.194 1.079.729 1.213z" fill="url(#SVGID_8_)"/><path d="m42.89 37.92c-.18.18-.29.439-.29.7 0 .27.11.529.29.71.19.189.45.29.71.29s.521-.101.71-.29c.19-.19.29-.44.29-.71 0-.261-.1-.521-.29-.7-.371-.38-1.05-.37-1.42 0z" fill="url(#SVGID_9_)"/><path d="m42.876 41.533c-.535-.131-1.078.193-1.213.729l-.484 1.94c-.133.536.192 1.079.729 1.213.081.02.163.029.243.029.448 0 .855-.304.97-.758l.484-1.94c.132-.536-.193-1.079-.729-1.213z" fill="url(#SVGID_10_)"/><path d="m51.72 15.325c.092 0 .185-.013.276-.039l4.279-1.227c.531-.151.838-.705.686-1.236-.151-.532-.71-.835-1.236-.686l-4.279 1.227c-.531.151-.838.705-.686 1.236.125.44.525.725.96.725z" fill="url(#SVGID_11_)"/><path d="m13.396 38.306c.081.021.163.03.243.03.448 0 .855-.303.969-.758.135-.536-.191-1.078-.728-1.212-.535-.134-.862-.679-.729-1.214.133-.536-.193-1.078-.729-1.212-.536-.128-1.078.193-1.212.729-.399 1.605.581 3.236 2.186 3.637z" fill="url(#SVGID_12_)"/><path d="m36.569 42.022c-.536-.131-1.078.193-1.212.729-.133.536.193 1.078.729 1.212.242.06.485.089.725.089 1.345 0 2.571-.913 2.911-2.275.133-.536-.193-1.078-.729-1.212-.537-.13-1.079.192-1.212.729-.133.536-.677.862-1.212.728z" fill="url(#SVGID_13_)"/><path d="m17.355 14.162c.081.02.162.029.242.029.448 0 .856-.304.97-.759.064-.259.226-.478.454-.614.23-.138.499-.179.758-.113.533.129 1.078-.193 1.212-.729.133-.536-.193-1.078-.729-1.212-.779-.192-1.584-.073-2.27.34-.688.413-1.173 1.068-1.366 1.847-.133.535.193 1.077.729 1.211z" fill="url(#SVGID_14_)"/><path d="m42.469 18.361c.535.134.862.679.729 1.214-.133.536.193 1.078.729 1.212.081.02.162.029.242.029.448 0 .856-.304.97-.759.398-1.604-.582-3.235-2.186-3.636-.534-.138-1.079.191-1.212.728-.135.537.192 1.079.728 1.212z" fill="url(#SVGID_15_)"/><path d="m28.703 23.175c.081.02.163.029.243.029.448 0 .855-.304.97-.758l1.936-7.762c.133-.536-.192-1.079-.729-1.213-.537-.129-1.078.193-1.213.729l-1.936 7.762c-.132.536.193 1.079.729 1.213z" fill="url(#SVGID_16_)"/><path d="m34.524 24.627c.081.02.163.029.243.029.448 0 .855-.304.97-.758l1.936-7.763c.133-.536-.193-1.079-.729-1.213-.537-.13-1.078.193-1.213.729l-1.936 7.763c-.132.536.194 1.079.729 1.213z" fill="url(#SVGID_17_)"/><path d="m48.699 18.174c.081.02.163.029.243.029.448 0 .856-.304.97-.758.258-1.037 1.057-1.864 2.085-2.159.53-.152.837-.706.685-1.237-.152-.529-.7-.839-1.237-.685-1.712.491-3.043 1.87-3.474 3.597-.133.536.193 1.079.728 1.213z" fill="url(#SVGID_18_)"/><path d="m36.182 48.325c0 2.71 2.29 5 5 5s5-2.29 5-5-2.29-5-5-5-5 2.29-5 5zm5-3c1.626 0 3 1.374 3 3s-1.374 3-3 3-3-1.374-3-3 1.374-3 3-3z" fill="url(#SVGID_19_)"/><path d="m19.778 12.705 22.69 5.657c.081.02.163.029.243.029.448 0 .856-.304.97-.758.133-.536-.193-1.079-.729-1.213l-22.69-5.657c-.536-.13-1.079.193-1.213.729-.132.536.194 1.079.729 1.213z" fill="url(#SVGID_20_)"/><path d="m33.079 20.317c-.372-.409-1.004-.438-1.412-.066-.409.371-.438 1.004-.066 1.412l2.427 2.666c.197.217.468.327.739.327.24 0 .481-.086.673-.261.409-.371.438-1.004.066-1.412z" fill="url(#SVGID_21_)"/></svg>
